HIERARCHY
ROOT Hips
{
  OFFSET 13.6774 106.653 -34.4427
  CHANNELS 6 Xposition Yposition Zposition Zrotation Xrotation Yrotation
  JOINT ToSpine
  {
    OFFSET -2.69724 7.43032 -0.144315
    CHANNELS 3 Zrotation Xrotation Yrotation
    JOINT Spine
    {
      OFFSET -0.0310711 10.7595 1.96963
      CHANNELS 3 Zrotation Xrotation Yrotation
      JOINT Spine1
      {
        OFFSET 19.9056 3.91189 0.764692
        CHANNELS 3 Zrotation Xrotation Yrotation
        JOINT Neck
        {
          OFFSET 25.9749 7.03908 -0.130764
          CHANNELS 3 Zrotation Xrotation Yrotation
          JOINT Head
          {
            OFFSET 9.52751 0.295786 -0.907742
            CHANNELS 3 Zrotation Xrotation Yrotation
            End Site
            {
              OFFSET 16.4037 0.713936 2.7358
            }
          }
        }
        JOINT LeftShoulder
        {
          OFFSET 17.7449 4.33886 11.7777
          CHANNELS 3 Zrotation Xrotation Yrotation
          JOINT LeftArm
          {
            OFFSET 0.911315 1.27913 9.80584
            CHANNELS 3 Zrotation Xrotation Yrotation
            JOINT LeftForeArm
            {
              OFFSET 28.6126 1.18197 -3.53199
              CHANNELS 3 Zrotation Xrotation Yrotation
              JOINT LeftHand
              {
                OFFSET 27.5088 0.0218783 0.327423
                CHANNELS 3 Zrotation Xrotation Yrotation
                End Site
                {
                  OFFSET 18.6038 -0.000155887 0.382096
                }
              }
            }
          }
        }
        JOINT RightShoulder
        {
          OFFSET 17.1009 2.89543 -12.2328
          CHANNELS 3 Zrotation Xrotation Yrotation
          JOINT RightArm
          {
            OFFSET 1.4228 0.178766 -10.211
            CHANNELS 3 Zrotation Xrotation Yrotation
            JOINT RightForeArm
            {
              OFFSET 28.733 1.87905 2.64907
              CHANNELS 3 Zrotation Xrotation Yrotation
              JOINT RightHand
              {
                OFFSET 27.4588 0.290562 -0.101845
                CHANNELS 3 Zrotation Xrotation Yrotation
                End Site
                {
                  OFFSET 17.8396 -0.255518 -0.000602873
                }
              }
            }
          }
        }
      }
    }
  }
  JOINT LeftUpLeg
  {
    OFFSET -5.61296 -2.22332 -10.2353
    CHANNELS 3 Zrotation Xrotation Yrotation
    JOINT LeftLeg
    {
      OFFSET 2.56703 -44.7417 -7.93097
      CHANNELS 3 Zrotation Xrotation Yrotation
      JOINT LeftFoot
      {
        OFFSET 3.16933 -46.5642 -3.96578
        CHANNELS 3 Zrotation Xrotation Yrotation
        JOINT LeftToeBase
        {
          OFFSET 0.346054 -6.02161 12.8035
          CHANNELS 3 Zrotation Xrotation Yrotation
          End Site
          {
            OFFSET 0.134235 -1.35082 5.13018
          }
        }
      }
    }
  }
  JOINT RightUpLeg
  {
    OFFSET -5.7928 -1.72406 10.6446
    CHANNELS 3 Zrotation Xrotation Yrotation
    JOINT RightLeg
    {
      OFFSET -2.57161 -44.7178 -7.85259
      CHANNELS 3 Zrotation Xrotation Yrotation
      JOINT RightFoot
      {
        OFFSET -3.10148 -46.5936 -4.03391
        CHANNELS 3 Zrotation Xrotation Yrotation
        JOINT RightToeBase
        {
          OFFSET -0.0828122 -6.13587 12.8035
          CHANNELS 3 Zrotation Xrotation Yrotation
          End Site
          {
            OFFSET -0.131328 -1.35082 5.13018
          }
        }
      }
    }
  }
}
MOTION
Frames: 8
Frame Time: 0.03333333333333333
0.0000 93.1000 0.0000 -56.9551 -47.8778 -149.5280 -70.8477 -0.3301 87.2609 98.5531 74.6642 -10.2014 -0.1238 26.7412 -5.7422 -127.4402 18.8252 -175.4444 -162.1264 55.4355 -159.4156 0.7304 -11.3728 -14.0626 -128.0726 40.7015 -92.7284 14.7922 -6.8324 -111.4752 -0.1154 0.1613 -0.0295 -0.6136 11.0235 11.2638 -70.5300 -53.5647 155.8574 16.8752 5.9468 109.3812 -0.1029 -0.0312 -0.2651 -33.7058 17.8151 93.0830 -2.5581 37.9395 -2.8161 -0.7367 -1.0072 -0.4001 1.6129 -4.6251 -2.1278 -55.8313 -9.3604 77.8607 1.5002 28.9247 -3.5209 -5.8669 -4.6705 0.3696 1.5537 -19.6016 -3.8275 
0.0000 93.1000 0.0000 -59.9362 -45.9462 -153.7461 -70.7871 -0.4346 87.2880 92.1862 74.4568 -3.7802 1.0013 25.6900 -5.7230 -129.1118 19.2804 -174.8548 -161.7508 55.6146 -160.2981 0.7472 -11.0717 -14.5189 -129.9825 39.6352 -89.9051 14.3734 -6.6294 -112.6539 0.0032 -0.0144 -0.0302 -0.7501 10.5214 12.2640 -67.2802 -52.6667 158.3205 17.6488 6.1276 108.9935 0.1009 -0.1124 -0.2598 -37.3246 18.1656 93.4434 -1.8175 34.1731 -1.8527 -2.5890 0.9565 0.1581 0.8154 -4.6924 0.3597 -55.7852 -9.3606 78.8223 0.2963 28.0133 0.5549 -4.0645 -5.5345 0.1158 1.6460 -17.7507 -3.5703 
0.0000 93.1000 0.0000 -62.0531 -43.8006 -156.9957 -70.9003 -0.0371 87.3206 90.2796 73.6808 -1.7059 1.5419 25.2562 -5.4841 -129.4791 19.1347 -173.7814 -163.1544 56.1237 -161.5120 1.0981 -11.0929 -14.8160 -131.2120 39.0200 -87.8115 13.8231 -6.8118 -113.2102 -0.0861 0.4889 -0.2812 -0.7075 10.1234 12.9796 -65.0393 -51.8761 159.6790 16.8006 6.3135 109.2148 0.2152 -0.6059 -0.4970 -39.1375 19.1040 94.6141 -2.5355 32.1749 -0.5397 -3.4373 2.4243 0.0921 -0.1723 -4.0206 3.0099 -56.1727 -8.5064 79.4776 -0.2228 26.6552 2.4116 -5.3963 -5.6485 0.9558 2.3904 -19.5832 -2.3813 
0.0000 93.1000 0.0000 -62.7487 -42.9581 -158.3837 -70.8676 0.1643 87.2550 87.6022 73.1675 0.2472 1.5450 24.9091 -5.1289 -130.7924 19.1899 -174.0018 -161.3194 56.1325 -164.3804 0.7396 -11.2548 -15.2670 -131.1309 39.0110 -87.0233 13.9273 -7.5499 -113.6810 -0.0220 0.2567 -0.1923 -0.9227 9.4317 14.6502 -63.4317 -50.5160 159.2469 15.0314 6.1065 110.3656 -0.0924 -0.0456 0.0457 -40.9485 19.4733 96.3724 -2.2244 31.3325 -1.7041 -4.7503 2.0437 0.1397 -1.1836 -3.2012 5.0317 -56.9126 -7.8160 79.7484 0.0518 26.1562 3.9655 -4.8337 -7.4438 0.7742 1.9799 -17.8398 -1.9223 
0.0000 93.1000 0.0000 -63.9775 -43.0607 -159.9094 -70.8886 0.0922 87.3353 84.7569 72.2247 3.4505 2.6680 23.8163 -4.4090 -131.2216 19.5758 -173.1502 -161.6649 56.4071 -164.1345 0.8857 -11.2371 -16.3741 -131.7783 38.8978 -85.9990 14.5039 -8.1571 -114.7086 -0.2247 0.2433 0.0331 -0.9541 9.0350 15.3038 -61.1691 -49.8730 159.8532 14.5952 6.3082 110.4772 -0.1289 -0.1678 -0.1010 -41.8183 19.7500 98.5234 -2.8388 31.4260 -4.8355 -6.0707 0.1639 0.3328 -0.6712 -3.0425 6.9346 -57.1617 -7.1802 79.6834 -1.0028 26.5087 2.6333 -4.6609 -9.0278 0.9772 0.7800 -13.7066 -0.6230 
0.0000 93.1000 0.0000 -64.9394 -43.2268 -160.9301 -70.8315 0.4775 87.2527 84.5182 72.1395 4.1115 3.3803 23.4163 -4.2818 -131.2745 19.8468 -173.4159 -161.3043 57.1195 -167.1525 1.2156 -11.2706 -17.1285 -132.1409 39.1223 -84.8651 14.9267 -8.3783 -115.7640 0.0760 0.3828 0.4681 -0.4667 9.0080 16.3184 -59.9363 -48.9177 159.0970 12.9580 5.2230 111.0591 -0.2088 0.4293 0.5670 -41.7764 18.7706 99.6987 -2.7275 33.3312 -7.8241 -6.6069 -2.8574 -0.0707 -0.5823 -2.5581 5.8417 -56.9504 -6.7810 79.3832 -1.9414 28.0966 2.2779 -3.8593 -10.7190 0.7849 1.5929 -11.0136 -0.1392 
0.0000 93.1000 0.0000 -65.9312 -42.7179 -162.0162 -70.8610 0.1564 87.2005 84.4091 71.8682 5.1046 4.0731 22.7455 -4.1135 -131.2610 20.1039 -173.4138 -160.6608 57.4192 -168.4274 1.0397 -11.5266 -18.4960 -131.2881 39.1777 -83.8505 15.9527 -9.5972 -116.8008 -0.0123 0.4257 0.2502 -0.7452 9.1661 17.1849 -59.5805 -48.7545 157.3037 13.0079 5.1749 111.2055 0.0804 0.3095 0.0594 -42.0067 17.9577 99.3377 -3.0154 33.9600 -8.3130 -6.4573 -2.8903 -0.1542 0.8967 -5.9462 7.6959 -56.1080 -6.5000 80.2739 -0.6587 30.1799 2.7156 -4.3043 -11.8626 0.9042 1.4863 -10.5323 -1.9919 
0.0000 93.1000 0.0000 -66.7262 -42.4813 -162.7808 -70.9402 0.0563 87.3009 84.1614 71.8680 6.1734 4.7475 22.3369 -4.1392 -131.4692 20.0035 -172.8795 -162.1965 57.6261 -168.4466 0.9502 -11.3546 -18.9426 -131.1633 39.8803 -83.0926 16.9708 -10.5408 -117.6878 -0.1009 0.3998 0.0476 -1.0248 9.3374 18.0622 -58.3007 -48.4321 157.1615 13.1504 4.9998 111.2178 -0.0220 0.2873 -0.0328 -42.8955 17.2386 99.2710 -2.6558 33.5131 -7.3042 -5.7784 -1.9252 -0.1629 1.5216 -7.6777 6.6581 -55.9850 -6.1669 81.1773 -1.0479 30.8395 3.5438 -4.4216 -13.3428 0.7435 1.1034 -9.4600 -2.8623 
